<svg width="50" height="50" xmlns="http://www.w3.org/2000/svg">
 <!-- Created with Method Draw - http://github.com/duopixel/Method-Draw/ -->
 <g>
  <title>background</title>
  <rect fill="#fff" id="canvas_background" height="52" width="52" y="-1" x="-1"/>
 </g>
 <g>
  <title>Layer 1</title>
  <path id="svg_1" d="m25.006588,0.640327c-13.401151,0 -24.264648,10.929337 -24.264648,24.411708c0,13.482371 10.863497,24.411708 24.264648,24.411708c13.401151,0 24.264648,-10.929337 24.264648,-24.411708c0,-13.482371 -10.863497,-24.411708 -24.264648,-24.411708zm19.092508,26.74639c0.00167,0.003359 0.006678,0.003359 0.008348,0.006719c-0.036729,0.31409 -0.090154,0.621462 -0.141908,0.930514c-0.025043,-0.020156 -0.056763,-0.041991 -0.078467,-0.060467c-0.171959,-0.151166 -0.424055,-0.214992 -0.530904,-0.193157c-0.262113,0.053748 0.382318,0.512286 0.445759,0.574433c0.015026,0.015117 0.051755,0.050389 0.10351,0.097418c-1.717925,8.922182 -9.531229,15.684363 -18.897176,15.684363c-6.883387,0 -12.915324,-3.661588 -16.321123,-9.138854c0.20535,-0.026874 0.400682,-0.026874 0.467463,-0.127652c0.085145,-0.129331 0.17029,-0.40479 0.297173,-0.555957c0.128552,-0.149487 0.275469,-0.384635 0.212028,-0.490451c-0.065111,-0.107496 0.16862,-0.577792 0.146917,-0.703764c-0.021704,-0.127652 -0.212028,-0.429985 0.106849,-0.683608s0.657787,-0.641618 0.67949,-0.745755c0.020034,-0.105817 0.277139,-0.555957 0.253765,-0.769269c-0.020034,-0.213313 -0.253765,-0.470296 -0.400682,-0.534122c-0.150256,-0.062146 -0.467463,-0.083981 -0.594345,-0.253624c-0.128552,-0.173002 -0.487497,-0.340964 -0.614379,-0.298974c-0.126883,0.041991 -0.34058,0.083981 -0.5092,-0.025194c-0.17029,-0.104137 -0.445759,-0.233468 -0.550938,-0.31745c-0.108518,-0.083981 -0.382318,-0.147807 -0.5092,-0.147807c-0.128552,0 -0.108518,-0.087341 -0.297173,0.169642c-0.190324,0.256983 0,0.342644 -0.34058,0.297294c-0.34058,-0.038631 0.041738,-0.060467 0.235401,-0.31745c0.188655,-0.255303 -0.021704,-0.40647 -0.235401,-0.340964c-0.210358,0.063826 -0.063441,0.193157 -0.402352,0.256983c-0.33891,0.060467 -0.33891,-0.151166 -0.126883,-0.193157s0.592676,-0.233468 0.592676,-0.319129c0,-0.085661 -0.041738,-0.320809 -0.212028,-0.320809s-0.128552,-0.211633 -0.382318,-0.488772c-0.153595,-0.169642 -0.327224,-0.275459 -0.499183,-0.342644c-0.150256,-0.972504 -0.250426,-1.960125 -0.250426,-2.974621c0,-4.776861 1.73462,-9.147252 4.59282,-12.526663c0.040068,-0.033593 0.080136,-0.057107 0.115196,-0.060467c0.140239,-0.015117 0.517548,-0.041991 0.85145,-0.099098c0.337241,-0.057107 0.697855,-0.27042 0.81639,-0.256983c0.115196,0.013437 0.402352,0.013437 0.310529,-0.070544c-0.093493,-0.095739 -0.223714,-0.293935 -0.417377,-0.293935s-0.013356,-0.312411 0.038399,-0.312411c0.050085,0 0.310529,0.041991 0.297173,0.184759c-0.011687,0.142768 0.078467,0.325848 0.335571,0.27042c0.260443,-0.057107 0.220375,-0.2721 0.17029,-0.327527c-0.053424,-0.057107 -0.091823,-0.199876 -0.141908,-0.298974c-0.051755,-0.100778 -0.038399,-0.228429 0.233731,-0.256983c0.270461,-0.026874 0.644431,0.112535 0.631075,-0.114215s0,-0.470296 0.076797,-0.597947c0.078467,-0.125972 0.247087,-0.213313 0.155264,-0.255303c-0.088484,-0.041991 -0.20535,0.057107 -0.297173,-0.156205c-0.090154,-0.213313 0.078467,-0.369518 0.180307,-0.455179c0.03339,-0.025194 0.111857,-0.100778 0.207019,-0.188118c3.140347,-2.237264 6.963523,-3.565849 11.097228,-3.565849c5.364133,0 10.220736,2.222147 13.713349,5.794715c-0.013356,0.036952 -0.016695,0.087341 -0.051755,0.094059c-0.128552,0.021835 -0.277139,0.105817 -0.298842,-0.085661c-0.021704,-0.191478 -0.021704,-0.555957 -0.17029,-0.340964c-0.148586,0.213313 -0.212028,0.213313 -0.212028,0.320809c0,0.105817 0.126883,0.213313 0.085145,0.40479c-0.043407,0.191478 -0.043407,0.320809 0.023373,0.320809c0.060102,0 0.210358,-0.193157 0.399013,-0.236827c0.193663,-0.041991 0.532573,-0.147807 0.554277,0.04367c0.021704,0.193157 0.232062,0.255303 0.021704,0.340964c-0.213697,0.085661 -0.445759,0.04367 -0.489166,-0.085661c-0.041738,-0.129331 -0.190324,-0.129331 -0.33891,-0.021835c-0.146917,0.105817 -0.465793,0.490451 -0.465793,0.490451s-0.51087,0.233468 -0.572642,0.191478c-0.06678,-0.041991 0.16862,-0.277139 0.33891,-0.382955c0.17029,-0.107496 0.297173,-0.342644 0.233731,-0.40647c-0.063441,-0.063826 -0.146917,-0.468616 -0.105179,-0.576112c0.041738,-0.105817 0.232062,-0.255303 0.021704,-0.3628c-0.212028,-0.105817 -0.362284,-0.235148 -0.530904,-0.298974s-0.360614,0.255303 -0.5092,0.342644c-0.148586,0.085661 -0.126883,0.191478 -0.318876,0.213313c-0.190324,0.021835 -0.315537,0.277139 0,0.426625c0.318876,0.149487 0.425725,0.255303 0.34058,0.342644c-0.085145,0.085661 -0.445759,-0.041991 -0.445759,-0.041991s-0.275469,-0.127652 -0.447428,-0.127652c-0.16862,0 -0.382318,-0.105817 -0.550938,-0.127652c-0.17029,-0.021835 -0.51087,-0.021835 -0.592676,0.063826c-0.085145,0.085661 -0.298842,0.340964 -0.467463,0.255303c-0.16862,-0.085661 -0.16862,-0.171322 -0.402352,-0.085661c-0.233731,0.085661 -0.465793,-0.063826 -0.592676,0.063826c-0.128552,0.127652 -0.021704,0.127652 -0.425725,0c-0.402352,-0.127652 -0.315537,0.085661 -0.699524,0.149487s-0.614379,-0.063826 -0.721228,0.063826c-0.106849,0.129331 -0.255435,0.364479 -0.317207,0.213313c-0.063441,-0.147807 0.210358,-0.40479 0.10351,-0.490451c-0.10351,-0.085661 -0.550938,-0.041991 -0.61271,0.021835c-0.065111,0.063826 -0.023373,0.298974 0.018365,0.384635c0.043407,0.083981 0.106849,0.426625 -0.018365,0.3628c-0.128552,-0.063826 -0.106849,-0.278818 -0.235401,-0.255303c-0.126883,0.021835 -0.275469,0.085661 -0.33891,0.129331c-0.063441,0.041991 -0.318876,0.041991 -0.382318,0.127652c-0.061772,0.085661 0.023373,0.320809 -0.085145,0.340964c-0.105179,0.021835 -0.190324,0.107496 -0.424055,-0.041991c-0.233731,-0.149487 -0.233731,-0.063826 -0.297173,-0.020156c-0.063441,0.041991 -0.360614,0.213313 -0.382318,0.020156c-0.021704,-0.191478 0.041738,-0.255303 -0.148586,-0.384635c-0.191994,-0.127652 -0.043407,-0.127652 0.212028,-0.041991c0.253765,0.083981 0.572642,0.125972 1.038435,-0.021835c0.467463,-0.149487 0.659456,-0.213313 0.467463,-0.298974c-0.191994,-0.083981 -0.382318,-0.169642 -0.677821,-0.213313c-0.298842,-0.041991 -0.701194,-0.041991 -1.168657,-0.213313c-0.465793,-0.171322 -0.572642,-0.235148 -0.762966,-0.277139c-0.191994,-0.04367 -1.357311,-0.235148 -1.889885,-0.149487c-0.529234,0.085661 -1.991725,0.470296 -2.078539,0.534122s-0.213697,0.319129 -0.487497,0.534122c-0.275469,0.213313 -0.784669,0.703764 -1.188691,0.789425c-0.402352,0.085661 -0.869814,0.426625 -0.869814,0.512286c0,0.085661 0.16862,0.40647 0.126883,0.470296c-0.041738,0.063826 0.083475,0.384635 0.318876,0.470296c0.232062,0.083981 0.636083,0.063826 0.656117,-0.065505c0.023373,-0.127652 0.34058,-0.40479 0.362284,-0.213313c0.021704,0.193157 0.233731,0.490451 0.190324,0.618103c-0.041738,0.129331 0,0.256983 0.150256,0.235148c0.146917,-0.020156 0.933256,-0.191478 0.933256,-0.191478s0.255435,-0.107496 0.212028,-0.278818c-0.043407,-0.169642 0.277139,-0.40479 0.33891,-0.468616c0.063441,-0.063826 0.297173,-0.320809 0.023373,-0.40479c-0.278808,-0.085661 -0.489166,-0.107496 -0.191994,-0.3628s0.487497,0 0.869814,-0.384635c0.382318,-0.384635 -0.085145,-0.490451 0.318876,-0.512286c0.402352,-0.021835 0.828077,-0.041991 0.741262,0.085661c-0.083475,0.127652 -0.570972,0.40647 -0.848111,0.534122c-0.277139,0.129331 -0.233731,0.3628 -0.126883,0.490451c0.105179,0.127652 0.150256,0.426625 0.34058,0.384635c0.188655,-0.041991 0.424055,-0.191478 0.634414,-0.169642c0.213697,0.020156 0.639422,-0.021835 0.701194,-0.021835c0.065111,0 0.360614,0.298974 0.190324,0.340964c-0.16862,0.041991 -0.382318,0.021835 -0.742932,0.041991c-0.358945,0.021835 -0.761296,0.021835 -0.761296,0.085661c0,0.065505 0.487497,0.213313 0.317207,0.320809c-0.17029,0.105817 -0.33891,-0.021835 -0.552608,-0.04367c-0.212028,-0.020156 -0.33891,0.278818 -0.402352,0.448461c-0.065111,0.171322 0.105179,0.470296 -0.212028,0.3628c-0.318876,-0.105817 -0.552608,-0.105817 -0.636083,-0.063826c-0.085145,0.041991 -0.33891,0.127652 -0.552608,0.191478c-0.210358,0.063826 -0.126883,-0.105817 -0.404021,-0.105817c-0.2738,0 -0.2738,0 -0.2738,0l-0.171959,0.021835c0,0 -0.16862,-0.105817 -0.190324,-0.277139c-0.021704,-0.171322 0.083475,-0.3628 -0.021704,-0.40479c-0.106849,-0.04367 -0.487497,0.020156 -0.550938,0.147807c-0.063441,0.127652 -0.128552,0.3628 -0.043407,0.470296c0.086814,0.105817 0.34058,0.319129 0.106849,0.255303c-0.233731,-0.063826 -0.529234,-0.085661 -0.699524,0.04367c-0.16862,0.127652 -0.465793,0.40479 -0.465793,0.40479s-0.530904,0.041991 -0.530904,0.171322c0,0.129331 0,0.298974 -0.190324,0.320809c-0.191994,0.021835 -0.447428,0.083981 -0.701194,0.127652c-0.255435,0.041991 -0.232062,0.147807 -0.529234,0.171322s-0.34058,0.149487 -0.063441,0.191478c0.275469,0.041991 0.697855,0.213313 0.719559,0.40479c0.023373,0.191478 -0.021704,0.40647 -0.126883,0.597947c-0.071789,0.132691 -0.5092,0.04367 -0.764635,0.04367c-0.253765,0 -0.761296,-0.085661 -0.974993,0c-0.212028,0.085661 -0.17029,0.512286 -0.106849,0.703764c0.065111,0.191478 -0.020034,0.298974 -0.105179,0.3628c-0.085145,0.063826 -0.108518,0.255303 0,0.342644c0.105179,0.085661 0.190324,0.277139 0.277139,0.298974c0.085145,0.021835 0.358945,-0.063826 0.465793,0.041991c0.106849,0.107496 0.212028,0.3628 0.275469,0.298974c0.065111,-0.063826 0.148586,-0.340964 0.255435,-0.278818c0.106849,0.065505 0.360614,-0.020156 0.552608,-0.041991s0.295503,-0.235148 0.487497,-0.342644c0.190324,-0.105817 0.083475,-0.105817 0.021704,-0.235148c-0.063441,-0.127652 0.190324,-0.277139 0.34058,-0.426625c0.146917,-0.149487 0.422386,-0.021835 0.487497,-0.193157c0.063441,-0.171322 0.085145,-0.468616 0.252096,-0.448461c0.171959,0.021835 0.405691,0.127652 0.552608,0.127652c0.148586,0 0.465793,-0.235148 0.554277,-0.277139c0.083475,-0.041991 0.402352,-0.021835 0.445759,0.171322c0.041738,0.191478 0.402352,0.426625 0.487497,0.468616c0.085145,0.041991 0.636083,0.213313 0.722898,0.277139c0.083475,0.063826 0.210358,0.256983 0.253765,0.426625c0.041738,0.171322 0.190324,0.171322 0.213697,0.021835c0.020034,-0.149487 -0.108518,-0.426625 0.041738,-0.40647c0.146917,0.021835 0.318876,-0.04367 0.318876,-0.04367s-0.405691,-0.277139 -0.552608,-0.340964c-0.146917,-0.063826 -0.425725,-0.191478 -0.552608,-0.40479c-0.126883,-0.213313 -0.445759,-0.256983 -0.424055,-0.468616c0.021704,-0.213313 0.318876,-0.085661 0.487497,0.085661c0.17029,0.171322 0.594345,0.40479 0.742932,0.554277c0.146917,0.149487 0.382318,0.213313 0.445759,0.40647c0.065111,0.191478 0.253765,0.40479 0.317207,0.490451c0.063441,0.085661 0.275469,0.555957 0.34058,0.661773c0.063441,0.105817 0.275469,-0.020156 0.382318,-0.105817c0.105179,-0.085661 0.298842,-0.127652 0.318876,-0.298974c0.021704,-0.171322 -0.255435,-0.298974 -0.33891,-0.3628c-0.085145,-0.063826 0.212028,-0.127652 0.318876,-0.213313c0.105179,-0.083981 0.295503,-0.235148 0.380648,-0.105817c0.085145,0.129331 0.043407,0.639938 0.085145,0.725599c0.041738,0.085661 0.465793,0.213313 0.552608,0.320809c0.083475,0.105817 0.445759,0.149487 0.507531,0.085661c0.065111,-0.063826 0.404021,0.04367 0.490836,0.063826c0.081806,0.021835 0.337241,-0.041991 0.507531,-0.083981c0.171959,-0.041991 0.34058,-0.171322 0.318876,0.105817c-0.021704,0.277139 -0.085145,0.703764 -0.298842,0.917077c-0.212028,0.213313 -0.126883,0.320809 -0.337241,0.320809c-0.100171,0 -0.188655,0 -0.260443,0.035272c-0.06845,-0.109176 -0.163612,-0.196516 -0.292164,-0.162924c-0.253765,0.063826 -0.574311,0.063826 -0.784669,0.319129c-0.213697,0.256983 -0.297173,0.277139 -0.34058,0.191478c-0.041738,-0.085661 0.616049,-0.448461 0.529234,-0.555957c-0.083475,-0.105817 -0.592676,-0.063826 -0.869814,-0.063826c-0.277139,0 -0.5092,-0.171322 -0.722898,-0.213313c-0.210358,-0.041991 -0.487497,0.213313 -0.697855,0.426625c-0.213697,0.213313 -0.360614,0.063826 -0.552608,0.063826c-0.191994,0 -0.552608,-0.277139 -0.552608,-0.277139s-0.360614,-0.149487 -0.5092,-0.149487c-0.146917,0 -0.445759,-0.277139 -0.530904,-0.277139c-0.083475,0 -0.317207,-0.193157 -0.146917,-0.278818c0.16862,-0.083981 0.337241,0.085661 0.16862,-0.384635c-0.16862,-0.468616 -0.550938,-0.3628 -0.699524,-0.298974c-0.146917,0.065505 -1.208725,0.041991 -1.29387,0.041991c-0.085145,0 -0.699524,0.213313 -0.889848,0.298974c-0.193663,0.085661 -0.530904,0.193157 -0.616049,0.235148c-0.085145,0.041991 -0.530904,-0.085661 -0.722898,0.021835c-0.252096,0.141089 -0.485827,0.3628 -0.550938,0.3628c-0.063441,0 -0.255435,0.149487 -0.382318,0.470296c-0.128552,0.319129 0.021704,0.596268 -0.213697,0.703764c-0.232062,0.105817 -0.657787,0.342644 -0.826407,0.512286c-0.17029,0.169642 -0.382318,0.769269 -0.592676,1.046408c-0.212028,0.277139 0,0.532442 0.041738,0.703764c0.041738,0.169642 0.190324,0.490451 -0.041738,0.791105c-0.233731,0.298974 -0.212028,0.446781 -0.318876,0.468616c-0.105179,0.021835 0.105179,0.105817 0.146917,0.319129c0.041738,0.214992 -0.190324,0.428305 0.213697,0.619783c0.402352,0.189798 0.592676,0.364479 0.697855,0.616423c0.106849,0.256983 0.637753,0.683608 0.637753,0.683608s0.382318,0.344324 0.574311,0.492131c0.190324,0.149487 0.253765,0.063826 0.295503,-0.083981c0.041738,-0.151166 0.297173,-0.174681 0.592676,-0.174681c0.297173,0 0.5092,0.067185 0.806373,0.023515c0.297173,-0.041991 0.594345,-0.236827 0.701194,-0.278818c0.105179,-0.041991 0.465793,-0.275459 0.739593,-0.105817c0.277139,0.173002 0.235401,0.40479 0.383987,0.557636c0.146917,0.147807 0.400682,0.062146 0.592676,-0.085661c0.190324,-0.151166 0.106849,-0.087341 0.33891,0.041991c0.233731,0.125972 0.34058,0.253624 0.128552,0.448461c-0.213697,0.189798 -0.085145,0.492131 -0.213697,0.789425c-0.126883,0.298974 -0.105179,0.340964 0.128552,0.466936c0.233731,0.127652 0.657787,0.920436 0.784669,1.071602c0.128552,0.147807 -0.041738,0.574433 0.106849,0.831416c0.148586,0.253624 0.297173,0.426625 0.128552,0.555957c-0.171959,0.125972 -0.467463,0.3628 -0.487497,0.789425s0.085145,0.72392 0.17029,0.875086s0.295503,0.555957 0.402352,0.703764c0.106849,0.149487 0.233731,0.512286 0.253765,0.747434c0.021704,0.235148 -0.040068,0.513966 0.065111,0.639938c0.106849,0.127652 0.17029,0.320809 0.360614,0.490451c0.191994,0.173002 0.253765,0.534122 0.253765,0.534122s0.065111,0.149487 0.085145,0.384635c0.020034,0.235148 0.041738,0.382955 0.253765,0.490451c0.210358,0.105817 0.358945,0.127652 0.467463,0.021835c0.105179,-0.105817 0.636083,-0.129331 0.911552,-0.105817c0.275469,0.021835 0.592676,-0.125972 0.869814,-0.319129s0.67949,-0.703764 0.828077,-0.853251c0.148586,-0.151166 0.487497,-0.428305 0.447428,-0.597947c-0.041738,-0.169642 -0.128552,-0.340964 0.040068,-0.426625c0.17029,-0.087341 0.574311,-0.255303 0.594345,-0.384635c0.021704,-0.129331 -0.150256,-0.663453 -0.191994,-0.76759c-0.040068,-0.107496 0.106849,-0.302333 0.275469,-0.513966c0.171959,-0.214992 0.702863,-0.3628 0.786339,-0.448461c0.085145,-0.08902 0.318876,-0.448461 0.362284,-0.727279c0.040068,-0.280498 -0.085145,-0.619783 0,-0.76759c0.083475,-0.151166 0.021704,-0.277139 -0.171959,-0.45014c-0.190324,-0.171322 -0.148586,-0.683608 -0.212028,-0.76759c-0.061772,-0.085661 -0.021704,-0.535801 0.105179,-0.579472c0.126883,-0.038631 0.404021,-0.468616 0.574311,-0.660094c0.17029,-0.191478 0.657787,-0.789425 0.891518,-0.833095c0.232062,-0.041991 0.592676,-0.384635 0.614379,-0.576112c0.021704,-0.193157 0.634414,-0.918756 0.657787,-1.066564c0.021704,-0.151166 0.277139,-0.705444 0.17029,-0.834775c-0.10351,-0.127652 -0.933256,0.193157 -1.038435,0.236827c-0.106849,0.041991 -0.402352,0.213313 -0.744601,0.189798c-0.337241,-0.021835 -0.190324,-0.297294 -0.212028,-0.426625c-0.020034,-0.127652 -0.380648,-0.618103 -0.465793,-0.639938c-0.085145,-0.020156 -0.33891,-0.278818 -0.445759,-0.532442c-0.105179,-0.256983 -0.253765,-0.576112 -0.424055,-0.769269c-0.17029,-0.191478 -0.275469,-0.638258 -0.447428,-0.938912c-0.16862,-0.298974 -0.315537,-0.683608 -0.465793,-0.960747c-0.03506,-0.068865 -0.075128,-0.132691 -0.111857,-0.196516c0.197002,-0.048709 0.482488,-0.137729 0.517548,-0.015117c0.040068,0.147807 0.275469,0.468616 0.317207,0.703764s0.275469,0.149487 0.297173,0.3628c0.023373,0.214992 0.233731,0.727279 0.317207,0.789425c0.086814,0.063826 0.467463,0.40647 0.530904,0.534122c0.063441,0.127652 0.148586,0.298974 0.212028,0.619783c0.063441,0.319129 0.126883,0.745755 0.298842,0.809581c0.17029,0.063826 0.741262,-0.107496 0.848111,-0.171322s0.804703,-0.40647 1.060138,-0.428305c0.255435,-0.020156 0.298842,-0.193157 0.614379,-0.255303c0.318876,-0.063826 0.552608,-0.297294 0.764635,-0.470296c0.212028,-0.169642 0.467463,-0.596268 0.550938,-0.745755c0.086814,-0.147807 0.298842,-0.255303 0.191994,-0.424946c-0.105179,-0.173002 -0.552608,-0.426625 -0.722898,-0.45014c-0.17029,-0.020156 -0.148586,-0.298974 -0.253765,-0.298974s-0.085145,0.147807 -0.297173,0.256983c-0.212028,0.105817 -0.425725,0.319129 -0.574311,0.277139s0.043407,-0.149487 -0.188655,-0.340964s-0.320546,-0.235148 -0.320546,-0.382955c0,-0.149487 -0.464124,-0.428305 -0.507531,-0.641618c-0.043407,-0.213313 0.317207,-0.512286 0.424055,-0.319129c0.105179,0.191478 0.191994,0.490451 0.465793,0.618103c0.275469,0.127652 0.530904,0.342644 0.659456,0.384635c0.126883,0.041991 0.445759,-0.235148 0.550938,-0.191478c0.105179,0.040311 0.318876,0.424946 0.51087,0.490451c0.188655,0.063826 0.826407,0.085661 0.933256,0.085661s0.550938,0.021835 0.636083,-0.105817c0.085145,-0.127652 0.148586,-0.127652 0.255435,-0.127652c0.10351,0 0.295503,0.384635 0.445759,0.426625c0.148586,0.041991 0.424055,0.021835 0.402352,0.300653c-0.020034,0.275459 0.126883,0.512286 0.275469,0.532442c0.150256,0.020156 0.489166,-0.320809 0.489166,-0.320809s0,0.534122 -0.020034,0.727279c-0.023373,0.189798 0.232062,0.896921 0.232062,0.896921s0.317207,0.660094 0.402352,0.809581s0.445759,0.596268 0.445759,0.789425c0,0.193157 0.041738,0.492131 0.171959,0.492131c0.126883,0 0.253765,-0.340964 0.400682,-0.555957c0.151925,-0.211633 0.193663,-0.512286 0.255435,-0.725599c0.063441,-0.213313 0.063441,-0.597947 0.063441,-0.745755c0,-0.151166 0.125213,-0.278818 0.425725,-0.40647c0.297173,-0.127652 0.507531,-0.490451 0.761296,-0.683608c0.255435,-0.193157 0.235401,-0.512286 0.744601,-0.512286c0.5092,0 0.464124,0 0.592676,-0.129331c0.126883,-0.127652 0.252096,-0.213313 0.317207,0.021835c0.063441,0.235148 0.424055,0.576112 0.487497,0.661773c0.063441,0.087341 0.190324,0.320809 0.171959,0.577792c-0.021704,0.255303 0.020034,0.554277 0.125213,0.554277s0.318876,-0.3628 0.318876,-0.3628s0.465793,-0.31745 0.445759,0.021835c-0.023373,0.340964 0.041738,0.703764 0.041738,0.915397c0,0.08902 0.070119,0.22675 0.146917,0.352722c-0.008348,0.099098 -0.006678,0.199876 -0.015026,0.298974c-0.151925,0.040311 -0.153595,0.332566 -0.071789,0.438383zm-11.776719,-8.945697c0.126883,0.083981 0.17029,0.213313 0.253765,0.340964c0.086814,0.127652 0.233731,0.083981 0.33891,0.191478c0.105179,0.107496 -0.297173,0.235148 -0.125213,0.3628c0.16862,0.129331 0.252096,0.639938 0.275469,0.769269c0.021704,0.127652 -0.465793,0.191478 -0.616049,0.171322c-0.148586,-0.021835 -0.591006,-0.171322 -0.742932,-0.213313c-0.148586,-0.04367 -0.232062,-0.576112 -0.041738,-0.555957c0.193663,0.021835 0.235401,-0.041991 0.445759,-0.233468c0.213697,-0.193157 -0.315537,-0.278818 -0.464124,-0.320809c-0.148586,-0.041991 -0.447428,-0.512286 -0.552608,-0.661773c-0.10351,-0.149487 -0.023373,-0.382955 0.235401,-0.555957c0.126883,-0.085661 0.465793,0.105817 0.636083,0c0.16862,-0.105817 0.33891,-0.235148 0.402352,-0.277139c0.065111,-0.041991 0.489166,0.063826 0.550938,0.191478c0.065111,0.127652 0.318876,0.320809 0.235401,0.384635c-0.086814,0.063826 -0.469132,0.127652 -0.594345,0c-0.125213,-0.129331 -0.425725,0.020156 -0.447428,0.255303c-0.023373,0.236827 0.085145,0.065505 0.210358,0.151166zm-5.854969,0.3628c-0.128552,-0.041991 0.041738,-0.298974 0.17029,-0.384635c0.125213,-0.085661 0.2738,-0.298974 0.402352,-0.512286c0.126883,-0.213313 0.297173,-0.235148 0.402352,-0.213313c0.105179,0.021835 0.33891,0.40479 0.402352,0.534122c0.063441,0.127652 0.275469,-0.04367 0.362284,-0.085661c0.083475,-0.041991 0.212028,-0.171322 0.233731,-0.277139s0.212028,-0.171322 0.424055,-0.171322s0.021704,0.171322 -0.126883,0.213313c-0.150256,0.041991 -0.063441,0.129331 0.188655,0.213313c0.255435,0.085661 0.489166,0.320809 0.766305,0.468616c0.275469,0.149487 0.317207,0.448461 0.146917,0.490451c-0.16862,0.041991 -0.677821,0.085661 -0.869814,0.063826c-0.190324,-0.021835 -0.424055,-0.213313 -0.699524,-0.256983c-0.275469,-0.041991 -0.616049,-0.021835 -0.722898,0.129331s-0.487497,0.083981 -0.659456,0.083981c-0.17029,0 -0.380648,0.213313 -0.422386,0.129331c0.00167,0.00168 0.128552,-0.381275 0.00167,-0.424946zm0.721228,-4.739909c0.105179,-0.298974 0.699524,0.063826 0.592676,0.213313c-0.105179,0.151166 -0.664465,-0.010078 -0.592676,-0.213313zm0.826407,15.328282c0.105179,0.171322 -0.233731,0.72392 -0.424055,0.683608c-0.188655,-0.04535 -0.126883,-0.534122 -0.063441,-0.641618c0.063441,-0.107496 0.432403,-0.13437 0.487497,-0.041991zm-7.701446,-9.926599c0.041738,-0.085661 -0.065111,-0.256983 -0.212028,-0.021835c-0.050085,0.082302 0.17029,0.107496 0.212028,0.021835zm12.728339,-7.791793c0.235401,0.127652 0.565964,0.17972 0.722898,0.021835c0.126883,-0.127652 0.021704,-0.342644 -0.083475,-0.3628c-0.106849,-0.021835 -0.173629,-0.193157 0.10351,-0.340964c0.275469,-0.149487 0.572642,-0.342644 0.891518,-0.384635c0.317207,-0.041991 1.038435,-0.063826 1.2922,0c0.253765,0.065505 0.637753,-0.278818 0.742932,-0.426625s-0.33891,-0.255303 -0.465793,-0.085661c-0.128552,0.171322 -0.741262,0.127652 -0.869814,0.085661c-0.126883,-0.041991 -1.145283,0.171322 -1.355642,0.171322c-0.213697,0 -0.298842,0.255303 -0.594345,0.384635c-0.298842,0.127652 -0.701194,0.320809 -0.84978,0.384635c-0.146917,0.063826 -0.295503,0.319129 -0.16862,0.3628c0.126883,0.041991 0.402352,0.062146 0.634414,0.189798zm-11.137297,7.791793c0.106849,-0.149487 -0.085145,-0.364479 -0.190324,-0.364479c-0.200341,0 -0.297173,0.320809 -0.171959,0.426625c0.128552,0.109176 0.255435,0.087341 0.362284,-0.062146zm0.954959,0.576112c0.106849,0.041991 0.190324,0.171322 0.275469,0.191478c0.086814,0.021835 0.362284,0 0.278808,-0.213313s-0.278808,-0.213313 -0.34058,-0.213313c-0.063441,0 -0.33891,-0.063826 -0.445759,0c-0.078467,0.04703 0.125213,0.193157 0.232062,0.235148zm-5.686349,-3.458353c0.16862,0.021835 0.362284,-0.105817 0.5092,-0.169642c0.146917,-0.063826 0.360614,-0.191478 0.360614,-0.384635c0,-0.191478 -0.041738,-0.3628 -0.128552,-0.448461c-0.085145,-0.085661 -0.233731,-0.107496 -0.360614,-0.085661c-0.191994,0.033593 -0.212028,0.235148 -0.33891,0.235148c-0.126883,0 -0.275469,0.041991 -0.233731,0.191478s0.128552,0.255303 0,0.319129c-0.126883,0.065505 0.020034,0.322489 0.191994,0.342644zm1.040104,-0.917077c0.212028,0.085661 0.657787,0.171322 0.487497,0.256983c-0.17029,0.085661 -0.467463,0.319129 -0.5092,0.448461s0.360614,0.256983 0.360614,0.256983s-0.128552,0.149487 -0.021704,0.191478c0.105179,0.041991 0.17029,-0.149487 0.33891,-0.149487c0.16862,0 0.507531,0.105817 0.677821,0.105817c0.171959,0 0.445759,-0.235148 0.424055,-0.384635c-0.021704,-0.149487 -0.233731,-0.384635 -0.424055,-0.470296c-0.188655,-0.085661 -0.402352,-0.470296 -0.529234,-0.555957c-0.126883,-0.085661 0.126883,-0.298974 -0.021704,-0.448461c-0.150256,-0.149487 -0.255435,-0.127652 -0.425725,-0.235148c-0.17029,-0.105817 -0.318876,0.021835 -0.424055,0.149487c-0.105179,0.127652 -0.233731,-0.021835 -0.362284,0.020156c-0.17029,0.058787 -0.105179,0.278818 -0.020034,0.384635c0.086814,0.109176 0.23707,0.344324 0.449098,0.429985zm21.36638,11.397953c-0.138569,0.062146 -0.255435,0.789425 0,0.875086c0.253765,0.087341 0.402352,-0.339285 0.318876,-0.448461c-0.086814,-0.104137 -0.128552,-0.512286 -0.318876,-0.426625zm-7.704785,5.485664c-0.265452,-0.075583 -0.295503,0.278818 -0.507531,0.513966c-0.213697,0.236827 -0.445759,0.426625 -0.529234,0.40479c-0.086814,-0.021835 -0.552608,0.149487 -0.404021,0.468616c0.148586,0.320809 0.126883,0.641618 -0.021704,0.792784c-0.148586,0.147807 0.126883,0.574433 0.086814,0.809581c-0.043407,0.233468 0.061772,0.384635 0.358945,0.384635s0.404021,-0.107496 0.530904,-0.384635c0.126883,-0.278818 0.146917,-0.555957 0.2738,-0.789425c0.128552,-0.236827 0.235401,-0.728958 0.298842,-0.85661c0.063441,-0.125972 0.190324,-0.530762 0.17029,-0.76759c-0.023373,-0.231789 -0.106849,-0.534122 -0.257104,-0.576112zm-16.232639,-19.587817c-0.115196,-0.100778 -0.382318,-0.171322 -0.51087,-0.184759c-0.126883,-0.013437 -0.253765,0.100778 -0.535912,0.100778c-0.280478,0 -0.465793,0.112535 -0.57932,0c-0.113527,-0.114215 -0.582659,-0.171322 -0.626066,-0.100778c-0.056763,0.095739 -0.16862,0.099098 -0.056763,0.298974c0.115196,0.198196 0.200341,0.312411 0.298842,0.298974s0.437411,-0.028554 0.480819,0.085661c0.041738,0.114215 0.156934,0.213313 0.395674,0.142768c0.242079,-0.070544 0.439081,-0.114215 0.494175,-0.199876c0.055094,-0.085661 0.439081,-0.099098 0.439081,-0.099098s0.312198,-0.243546 0.200341,-0.342644z" stroke-opacity="null" stroke-width="1.5" stroke="#000" fill="#000000"/>
 </g>
</svg>